<svg width="27" height="26" viewBox="0 0 27 26" fill="none" xmlns="http://www.w3.org/2000/svg">
<path d="M0 3C0 1.34315 1.3437 0 3.00125 0H23.0096C24.6671 0 26.0108 1.34315 26.0108 3V23C26.0108 24.6569 24.6671 26 23.0096 26H3.00125C1.3437 26 0 24.6569 0 23V3Z" fill="#EB9110"/>
<path d="M19.9079 19.4272H4.00172V22H21.4448C21.7176 21.9993 21.979 21.8906 22.1719 21.6976C22.3647 21.5046 22.4734 21.2431 22.4741 20.9702L22.4741 13.7707C22.4663 13.4865 22.3607 13.2138 22.175 12.9987C21.9893 12.7836 21.735 12.6393 21.4552 12.5903L6.56871 10.4L6.56871 6.57279L22.4741 6.57279V4L5.0318 4C4.75897 4.00069 4.49749 4.10937 4.30448 4.30233C4.11148 4.49528 4.00263 4.75682 4.00172 5.02981L4.00171 11.6366C4.00991 11.9206 4.11573 12.1931 4.30132 12.4081C4.48692 12.6232 4.74094 12.7676 5.02055 12.817L19.9079 15.0064L19.9079 19.4272Z" fill="white"/>
</svg>
